<svg width="24" height="24" viewBox="0 0 24 24" fill="none" xmlns="http://www.w3.org/2000/svg">
  <path d="M12 15C11.1667 15 10.4583 14.7083 9.875 14.125C9.29167 13.5417 9 12.8333 9 12C9 11.1667 9.29167 10.4583 9.875 9.875C10.4583 9.29167 11.1667 9 12 9C12.8333 9 13.5417 9.29167 14.125 9.875C14.7083 10.4583 15 11.1667 15 12C15 12.8333 14.7083 13.5417 14.125 14.125C13.5417 14.7083 12.8333 15 12 15ZM2 13V11H4V13H2ZM20 13V11H22V13H20ZM11 4V2H13V4H11ZM11 22V20H13V22H11ZM5.4 7.8L4 6.4L5.4 5L6.8 6.4L5.4 7.8ZM18.6 7.8L17.2 6.4L18.6 5L20 6.4L18.6 7.8ZM5.4 19L4 17.6L5.4 16.2L6.8 17.6L5.4 19ZM18.6 19L17.2 17.6L18.6 16.2L20 17.6L18.6 19Z" fill="#007AFF"/>
</svg> 