<svg width="24" height="24" viewBox="0 0 24 24" fill="none" xmlns="http://www.w3.org/2000/svg">
  <path d="M12 22C10.6167 22 9.43733 21.5123 8.462 20.537C7.48667 19.5617 6.99933 18.3827 7 17C7 16.35 7.15 15.7373 7.45 15.162C7.75 14.5867 8.16667 14.1 8.7 13.7V6C8.7 5.15 8.979 4.43733 9.537 3.862C10.095 3.28667 10.7993 2.99933 11.65 3C12.5 3 13.2043 3.28767 13.763 3.863C14.3217 4.43833 14.6007 5.15067 14.6 6V13.7C15.1333 14.1 15.55 14.5867 15.85 15.162C16.15 15.7373 16.3 16.35 16.3 17C16.3 18.3833 15.8127 19.5627 14.838 20.538C13.8633 21.5133 12.684 22.0007 11.3 22H12ZM11.65 15C12.0333 15 12.3583 15.1377 12.625 15.413C12.8917 15.6883 13.0293 16.0173 13.038 16.4C13.038 16.7833 12.9003 17.1083 12.625 17.375C12.3497 17.6417 12.0207 17.7793 11.638 17.788C11.2547 17.788 10.9297 17.6503 10.663 17.375C10.3963 17.0997 10.2587 16.7707 10.25 16.388C10.25 16.0047 10.3877 15.6797 10.663 15.413C10.9383 15.1463 11.2673 15.0087 11.65 15Z" fill="#007AFF"/>
</svg> 